<?xml version="1.0" encoding="UTF-8" standalone="no"?>
<svg
   xmlns:dc="http://purl.org/dc/elements/1.1/"
   xmlns:cc="http://creativecommons.org/ns#"
   xmlns:rdf="http://www.w3.org/1999/02/22-rdf-syntax-ns#"
   xmlns:svg="http://www.w3.org/2000/svg"
   xmlns="http://www.w3.org/2000/svg"
   xmlns:sodipodi="http://sodipodi.sourceforge.net/DTD/sodipodi-0.dtd"
   xmlns:inkscape="http://www.inkscape.org/namespaces/inkscape"
   version="1.1"
   x="0px"
   y="0px"
   viewBox="0 0 99.999999 100"
   enable-background="new 0 0 100 100"
   xml:space="preserve"
   id="svg8"
   sodipodi:docname="lightbulb.svg"
   width="100"
   height="100"
   inkscape:version="0.92.0 unknown"><metadata
     id="metadata14"><rdf:RDF><cc:Work
         rdf:about=""><dc:format>image/svg+xml</dc:format><dc:type
           rdf:resource="http://purl.org/dc/dcmitype/StillImage" /><dc:title></dc:title></cc:Work></rdf:RDF></metadata><defs
     id="defs12" /><sodipodi:namedview
     pagecolor="#ffffff"
     bordercolor="#666666"
     borderopacity="1"
     objecttolerance="10"
     gridtolerance="10"
     guidetolerance="10"
     inkscape:pageopacity="0"
     inkscape:pageshadow="2"
     inkscape:window-width="1920"
     inkscape:window-height="1056"
     id="namedview10"
     showgrid="false"
     fit-margin-top="0"
     fit-margin-left="0"
     fit-margin-right="0"
     fit-margin-bottom="0"
     inkscape:zoom="5.3400704"
     inkscape:cx="55.093739"
     inkscape:cy="36.199277"
     inkscape:window-x="0"
     inkscape:window-y="24"
     inkscape:window-maximized="1"
     inkscape:current-layer="svg8"
     showguides="true" />
     <path d="m 58.687522,72.621 c 6.505,-11.475 14.366,-23.337 18.188,-37.364 2.32,-8.497 -0.622,-16.024 -4.866,-20.845 -4.476,-5.0789997 -10.784,-8.4350002 -19.599,-9.4120004 h -4.763 C 32.966522,6.9619998 24.528522,14.464 22.308522,27.479 v 3.934 c 0.526,3.727 1.702,7.764 3.03,11.432 3.904,10.77 8.718,20.57 13.965,29.776 z m -12.347,-2.594 c -0.457,-13.48 -1.459,-27.004 -1.733,-40.342 0.92,3.528 6.208,10.597 11.16,6.725 0.429,-0.337 0.778,-1.034 1.079,-0.863 -2.089,11.809 -4.776,23.102 -7.363,34.48 z m 28.483,-42.171 c 0.415,5.552 -1.519,9.742 -3.254,13.928 -4.126,9.974 -9.463,19.728 -14.619,28.243 h -4.977 c 2.674,-11.295 5.579,-23.856 7.688,-36.114 0.415,-2.442 1.822,-6.146 -0.976,-6.434 -1.044,1.34 -1.615,3.045 -2.601,4.703 -0.758,1.283 -2.089,3.531 -4.112,3.46 -1.477,-0.052 -2.586,-1.681 -3.358,-2.789 -1.798,-2.588 -2.829,-5.238 -3.787,-8.162 -0.443,-1.347 -0.561,-3.548 -2.711,-3.363 -0.474,1.875 -0.208,3.891 -0.104,5.86 0.733,14.248 1.418,28.735 2.055,42.838 h -3.133 c -4.513,-8.957 -9.462,-18.288 -12.886,-28.334 -1.172,-3.42 -2.58,-7.062 -2.815,-10.857 -0.505,-7.996 3.199,-13.33 7.795,-17.189 4.081,-3.434 9.6,-6.1490001 16.994,-6.1490001 3.884,0 7.225,0.837 10.07,1.9170005 7.558,2.8829996 14.071,9.7289996 14.731,18.4419996 m -35.351,47.853 h 19.014 m -19.159,9.452 h 19.304 c 0.021,0.896 0.011,1.76 -0.062,2.573 h -19.18 c -0.073,-0.813 -0.083,-1.677 -0.062,-2.573 z m 0.145,-9.452 h 19.014 c -0.114,0.969 -0.132,1.982 -0.121,3.006 h -18.772 c 0.01,-1.024 -0.007,-2.037 -0.121,-3.006 z m 18.948,4.942 c 0.042,0.864 0.09,1.723 0.135,2.573 h -19.152 c 0.045,-0.851 0.093,-1.709 0.135,-2.573 z m -0.207,9.02 c -0.101,0.353 -0.193,0.712 -0.339,1.03 -1.308,2.843 -4.921,4.295 -8.895,4.299 -3.974,-0.004 -7.587,-1.456 -8.895,-4.299 -0.145,-0.318 -0.238,-0.678 -0.339,-1.03 z"
     id="path2"
     inkscape:connector-curvature="0" /></svg>
